<svg width="14" height="17" viewBox="0 0 14 17" fill="none" xmlns="http://www.w3.org/2000/svg">
<path d="M12.5714 1.42862H13.4286C13.5893 1.42862 13.7143 1.30362 13.7143 1.14291V0.571482C13.7143 0.410768 13.5893 0.285767 13.4286 0.285767H0.285714C0.125 0.285767 0 0.410768 0 0.571482V1.14291C0 1.30362 0.125 1.42862 0.285714 1.42862H1.14286C1.14286 4.7322 2.72321 7.12505 4.47321 8.28577C2.72321 9.44648 1.14286 11.8393 1.14286 15.1429H0.285714C0.125 15.1429 0 15.2679 0 15.4286V16.0001C0 16.1608 0.125 16.2858 0.285714 16.2858H13.4286C13.5893 16.2858 13.7143 16.1608 13.7143 16.0001V15.4286C13.7143 15.2679 13.5893 15.1429 13.4286 15.1429H12.5714C12.5714 11.8393 10.9911 9.44648 9.24107 8.28577C10.9911 7.12505 12.5714 4.7322 12.5714 1.42862ZM11.4286 1.42862C11.4286 2.7322 11.1339 3.88398 10.6696 4.8572H3.04464C2.58036 3.88398 2.28571 2.7322 2.28571 1.42862H11.4286ZM10.9196 12.2858H2.79464C3.45536 10.5626 4.64286 9.33934 5.83036 8.8572H7.88393C9.07143 9.33934 10.2589 10.5626 10.9196 12.2858Z" fill="white"/>
</svg>
